<svg xmlns="http://www.w3.org/2000/svg" xml:space="preserve" width="655.359" height="655.359" style="shape-rendering:geometricPrecision;text-rendering:geometricPrecision;image-rendering:optimizeQuality;fill-rule:evenodd;clip-rule:evenodd" viewBox="0 0 6.827 6.827"><path d="M3.413 3.492c.171 0 .342-.192.512-.192.171 0 .342.192.512.192.171 0 .342-.192.512-.192.171 0 .342.192.512.192.171 0 .342-.192.512-.192v-.647c-.17 0-.341.192-.512.192-.17 0-.341-.192-.512-.192-.17 0-.341.192-.512.192-.17 0-.341-.192-.512-.192-.17 0-.341.192-.512.192-.17 0-.341-.192-.512-.192-.17 0-.341.192-.512.192-.17 0-.341-.192-.512-.192-.17 0-.341.192-.512.192-.17 0-.341-.192-.512-.192V3.3c.171 0 .342.192.512.192.171 0 .342-.192.512-.192.171 0 .342.192.512.192.171 0 .342-.192.512-.192.171 0 .342.192.512.192z" style="fill:#25b3f4"/><path d="M4.153 2.07v.002c-.05.075.22.42.306.39l-.348.132-.17-.217.212-.306z" style="fill:#9e9e9e"/><path d="M3.833 2.438s-.387.384-.627.158c0 0-.167-.263-.502.014l-.725.682c-.151.102.621 1.09.774.988l.835-.54c.35-.259.134-.484.134-.484-.161-.288.305-.571.305-.571l-.194-.247z" style="fill:#ffca28"/><path d="M3.722 3.256c-.072-.265.305-.571.305-.571l-.194-.247s-.388.271-.627.158c.063.24.308.525.516.66z" style="fill:#dbb02d"/><path d="m4.048 2.724.109-.085c.021-.017.032-.056.008-.07a.416.416 0 0 1-.186-.238c-.008-.026-.048-.026-.07-.009l-.11.086c-.081.064.166.38.249.316z" style="fill:#b29233"/><ellipse transform="matrix(.3004 .38366 -.40785 .31934 4.307 2.266)" rx=".511" ry=".133" style="fill:#808384"/><path d="M3.413 4.117c.171 0 .342-.192.512-.192.171 0 .342.192.512.192.171 0 .342-.192.512-.192.171 0 .342.192.512.192.171 0 .342-.192.512-.192v-.647c-.17 0-.341.192-.512.192-.17 0-.341-.192-.512-.192-.17 0-.341.192-.512.192-.17 0-.341-.192-.512-.192-.17 0-.341.192-.512.192-.17 0-.341-.192-.512-.192-.17 0-.341.192-.512.192-.17 0-.341-.192-.512-.192-.17 0-.341.192-.512.192-.17 0-.341-.192-.512-.192v.647c.171 0 .342.192.512.192.171 0 .342-.192.512-.192.171 0 .342.192.512.192.171 0 .342-.192.512-.192.171 0 .342.192.512.192z" style="fill:#4fc3f7"/><path d="M3.413 4.761c.171 0 .342-.192.512-.192.171 0 .342.192.512.192.171 0 .342-.192.512-.192.171 0 .342.192.512.192.171 0 .342-.192.512-.192v-.646c-.17 0-.341.192-.512.192-.17 0-.341-.192-.512-.192-.17 0-.341.192-.512.192-.17 0-.341-.192-.512-.192-.17 0-.341.192-.512.192-.17 0-.341-.192-.512-.192-.17 0-.341.192-.512.192-.17 0-.341-.192-.512-.192-.17 0-.341.192-.512.192-.17 0-.341-.192-.512-.192v.646c.171 0 .342.192.512.192.171 0 .342-.192.512-.192.171 0 .342.192.512.192.171 0 .342-.192.512-.192.171 0 .342.192.512.192z" style="fill:#81d4fa"/><path style="fill:none" d="M0 0h6.827v6.827H0z"/></svg>